<svg xmlns="http://www.w3.org/2000/svg" version="1.1" xmlns:xlink="http://www.w3.org/1999/xlink" xmlns:svgjs="http://svgjs.dev/svgjs" width="1000" height="1000" viewBox="0 0 1000 1000"><rect width="1000" height="1000" fill="#ffffff"></rect><g transform="matrix(0.7,0,0,0.7,150.07594268799437,230.36850407647609)"><svg viewBox="0 0 320 247" data-background-color="#ffffff" preserveAspectRatio="xMidYMid meet" height="771" width="1000" xmlns="http://www.w3.org/2000/svg" xmlns:xlink="http://www.w3.org/1999/xlink"><g id="tight-bounds" transform="matrix(1,0,0,1,-0.03471665736884688,-0.10000093920618269)"><svg viewBox="0 0 320.0694333147377 247.2" height="247.2" width="320.0694333147377"><g><svg viewBox="0 0 395.52 305.4729187584" height="247.2" width="320.0694333147377"><g transform="matrix(1,0,0,1,0,188.79451875840002)"><svg viewBox="0 0 395.52 116.6784" height="116.6784" width="395.52"><g><svg viewBox="0 0 395.52 116.6784" height="116.6784" width="395.52" id="textblock"><g><svg viewBox="0 0 395.52 116.6784" height="116.6784" width="395.52"><g transform="matrix(1,0,0,1,0,0)"><svg width="395.52" viewBox="0.949999988079071 -38.04999923706055 129.99000549316406 38.349998474121094" height="116.6784" data-palette-color="#010c80"><path d="M22.78-12.13Q25.85-12.15 27.68-10.5 29.5-8.85 29.5-6.35 29.5-3.85 27.6-1.93 25.7 0 21.85 0L21.85 0 1.45 0Q0.95-1.25 0.95-2.65 0.95-4.05 2-5.45L2-5.45 19.35-32.1 17.65-32.1Q16.3-29.45 13.8-27.7 11.3-25.95 8.22-25.93 5.15-25.9 3.33-27.55 1.5-29.2 1.5-31.7 1.5-34.2 3.4-36.13 5.3-38.05 9.15-38.05L9.15-38.05 29.05-38.05Q29.3-37.2 29.3-36.35L29.3-36.35Q29.3-34.8 28.35-33.5L28.35-33.5 10.5-5.95 13.35-5.95Q14.7-8.6 17.2-10.35 19.7-12.1 22.78-12.13ZM14.15-32.1L9.1-32.1Q5.85-32.1 5.85-30.55 5.85-29 8.9-29 11.95-29 14.15-32.1L14.15-32.1ZM16.85-5.95L21.9-5.95Q25.15-5.95 25.15-7.5 25.15-9.05 22.1-9.05 19.05-9.05 16.85-5.95L16.85-5.95ZM71.9-23.1L73-20.1Q71.85-18.85 69.2-17.88 66.55-16.9 64.97-16.9 63.4-16.9 62.65-17L62.65-17Q61.4-9.6 56.27-4.65 51.15 0.3 44.37 0.3 37.6 0.3 34.17-3.9 30.75-8.1 30.75-14.85L30.75-14.85Q30.75-19.25 32.1-23.43 33.45-27.6 35.82-30.85 38.2-34.1 41.8-36.08 45.4-38.05 49.32-38.05 53.25-38.05 55.77-36.27 58.3-34.5 58.3-31.35L58.3-31.35Q58.3-28.95 56.62-27.08 54.95-25.2 52-25.2L52-25.2Q50.45-25.2 49.25-25.98 48.05-26.75 48.05-28.45L48.05-28.45Q48.05-29.25 48.45-29.85 48.85-30.45 49.25-30.6L49.25-30.6 49.7-30.8Q49.7-28.8 51.3-28.8L51.3-28.8Q52.05-28.8 52.6-29.33 53.15-29.85 53.2-30.5 53.25-31.15 53.15-31.53 53.05-31.9 52.75-32.4L52.75-32.4Q52.05-33.65 49.8-33.65L49.8-33.65Q46.85-33.65 44.2-30.85 41.55-28.05 39.97-23.65 38.4-19.25 38.4-14.65L38.4-14.65Q38.4-10.8 39.65-7.8L39.65-7.8Q40.35-6.2 41.7-5.28 43.05-4.35 44.95-4.35L44.95-4.35Q48.1-4.35 50.57-7 53.05-9.65 54.22-13.4 55.4-17.15 55.4-21L55.4-21 55.4-21.6Q55.25-22.15 55.25-22.65L55.25-22.65Q55.25-25.05 56.95-26.3L56.95-26.3Q58.05-27.1 59.7-27.1L59.7-27.1Q60.15-27.1 61.15-26.95 62.15-26.8 62.55-26.5L62.55-26.5Q61.5-26.45 60.92-25.8 60.35-25.15 60.35-24.05 60.35-22.95 61.35-22L61.35-22Q62.75-20.65 65.72-20.65 68.7-20.65 71.9-23.1L71.9-23.1ZM109.25-23.1L110.34-20.1Q109.19-18.85 106.55-17.88 103.9-16.9 102.32-16.9 100.75-16.9 100-17L100-17Q98.75-9.6 93.62-4.65 88.5 0.3 81.72 0.3 74.94 0.3 71.52-3.9 68.09-8.1 68.09-14.85L68.09-14.85Q68.09-19.25 69.44-23.43 70.8-27.6 73.17-30.85 75.55-34.1 79.14-36.08 82.75-38.05 86.67-38.05 90.59-38.05 93.12-36.27 95.64-34.5 95.64-31.35L95.64-31.35Q95.64-28.95 93.97-27.08 92.3-25.2 89.34-25.2L89.34-25.2Q87.8-25.2 86.59-25.98 85.39-26.75 85.39-28.45L85.39-28.45Q85.39-29.25 85.8-29.85 86.19-30.45 86.59-30.6L86.59-30.6 87.05-30.8Q87.05-28.8 88.64-28.8L88.64-28.8Q89.39-28.8 89.94-29.33 90.5-29.85 90.55-30.5 90.59-31.15 90.5-31.53 90.39-31.9 90.09-32.4L90.09-32.4Q89.39-33.65 87.14-33.65L87.14-33.65Q84.19-33.65 81.55-30.85 78.89-28.05 77.32-23.65 75.75-19.25 75.75-14.65L75.75-14.65Q75.75-10.8 77-7.8L77-7.8Q77.69-6.2 79.05-5.28 80.39-4.35 82.3-4.35L82.3-4.35Q85.44-4.35 87.92-7 90.39-9.65 91.57-13.4 92.75-17.15 92.75-21L92.75-21 92.75-21.6Q92.59-22.15 92.59-22.65L92.59-22.65Q92.59-25.05 94.3-26.3L94.3-26.3Q95.39-27.1 97.05-27.1L97.05-27.1Q97.5-27.1 98.5-26.95 99.5-26.8 99.9-26.5L99.9-26.5Q98.84-26.45 98.27-25.8 97.69-25.15 97.69-24.05 97.69-22.95 98.69-22L98.69-22Q100.09-20.65 103.07-20.65 106.05-20.65 109.25-23.1L109.25-23.1ZM124.22-12.13Q127.29-12.15 129.12-10.5 130.94-8.85 130.94-6.35 130.94-3.85 129.04-1.93 127.14 0 123.29 0L123.29 0 102.89 0Q102.39-1.25 102.39-2.65 102.39-4.05 103.44-5.45L103.44-5.45 120.79-32.1 119.09-32.1Q117.74-29.45 115.24-27.7 112.74-25.95 109.67-25.93 106.59-25.9 104.77-27.55 102.94-29.2 102.94-31.7 102.94-34.2 104.84-36.13 106.74-38.05 110.59-38.05L110.59-38.05 130.49-38.05Q130.74-37.2 130.74-36.35L130.74-36.35Q130.74-34.8 129.79-33.5L129.79-33.5 111.94-5.95 114.79-5.95Q116.14-8.6 118.64-10.35 121.14-12.1 124.22-12.13ZM115.59-32.1L110.54-32.1Q107.29-32.1 107.29-30.55 107.29-29 110.34-29 113.39-29 115.59-32.1L115.59-32.1ZM118.29-5.95L123.34-5.95Q126.59-5.95 126.59-7.5 126.59-9.05 123.54-9.05 120.49-9.05 118.29-5.95L118.29-5.95Z" opacity="1" transform="matrix(1,0,0,1,0,0)" fill="#010c80" class="undefined-text-0" data-fill-palette-color="primary" id="text-0"></path></svg></g></svg></g></svg></g></svg></g><g transform="matrix(1,0,0,1,120.8330157317227,0)"><svg viewBox="0 0 153.8539685365546 161.2495488" height="161.2495488" width="153.8539685365546"><g><svg xmlns="http://www.w3.org/2000/svg" xmlns:xlink="http://www.w3.org/1999/xlink" version="1.1" x="8" y="0" viewBox="11.700000762939453 5.199999809265137 76.60000610351562 89.60000610351562" style="enable-background:new 0 0 100 100;" xml:space="preserve" height="161.2495488" width="137.8539685365546" class="icon-icon-0" data-fill-palette-color="accent" id="icon-0"><g fill="#77d4fc" data-fill-palette-color="accent"><polygon points="50,44.1 45.8,44.1 50,48.9 54.2,44.1  " fill="#77d4fc" data-fill-palette-color="accent"></polygon><path d="M50 5.2c-21.2 0-38.3 17.2-38.3 38.3 0 16.9 10.9 31.2 26.1 36.3L50 94.8l12.2-14.9c15.2-5.1 26.1-19.4 26.1-36.3C88.3 22.4 71.2 5.2 50 5.2zM34.8 36.5c-0.3 0.3-0.6 0.4-1 0.4s-0.7-0.1-1-0.4c-0.5-0.5-0.5-1.4 0-1.9l7-7c0.3-0.3 0.6-0.4 1-0.4s0.7 0.1 1 0.4l4.2 4.2c0.5 0.5 0.5 1.4 0 1.9-0.5 0.5-1.4 0.5-1.9 0l-3.3-3.3L34.8 36.5zM57.9 57c-2.1 1.5-5 2.3-7.9 2.3-3 0-5.8-0.8-7.9-2.3-2.3-1.6-3.5-3.8-3.5-6.1 0-0.7 0.6-1.3 1.3-1.3s1.3 0.6 1.3 1.3c0 2.8 3.3 5.3 7.4 5.7v-5.1l-6.9-7.8c-0.4-0.4-0.4-1-0.2-1.4 0.2-0.5 0.7-0.8 1.2-0.8H50h7.2c0.5 0 1 0.3 1.2 0.8 0.2 0.5 0.1 1.1-0.2 1.4l-6.9 7.8v5.1c4.1-0.4 7.4-2.9 7.4-5.7 0-0.7 0.6-1.3 1.3-1.3 0.7 0 1.3 0.6 1.3 1.3C61.5 53.2 60.2 55.4 57.9 57zM67.2 36.1c-0.3 0.3-0.6 0.4-1 0.4-0.3 0-0.7-0.1-1-0.4l-5.6-5.6-3.7 3.7c-0.5 0.5-1.4 0.5-1.9 0-0.5-0.5-0.5-1.4 0-1.9l4.7-4.7c0.5-0.5 1.4-0.5 1.9 0l6.6 6.6C67.7 34.7 67.7 35.6 67.2 36.1z" fill="#77d4fc" data-fill-palette-color="accent"></path></g></svg></g></svg></g><g><rect width="83.10773238909155" height="10.5221785241088" y="149.72737027589122" x="274.6869842682773" fill="#77d4fc" data-fill-palette-color="accent"></rect><rect width="83.10773238909155" height="10.5221785241088" y="149.72737027589122" x="37.725283342631144" fill="#77d4fc" data-fill-palette-color="accent"></rect><rect width="83.10773238909155" height="10.5221785241088" y="128.68301322767363" x="274.6869842682773" fill="#77d4fc" data-fill-palette-color="accent"></rect><rect width="83.10773238909155" height="10.5221785241088" y="128.68301322767363" x="37.725283342631144" fill="#77d4fc" data-fill-palette-color="accent"></rect></g></svg></g><defs></defs></svg><rect width="320.0694333147377" height="247.2" fill="none" stroke="none" visibility="hidden"></rect></g></svg></g></svg>